<svg width="20" height="21" viewBox="0 0 20 21" fill="none" xmlns="http://www.w3.org/2000/svg">
<path d="M17.8109 20.498H2.18695C2.15977 20.484 2.13128 20.4726 2.10193 20.464C1.73653 20.411 1.38845 20.2738 1.08511 20.0633C0.781773 19.8528 0.531475 19.5748 0.353943 19.251C0.212051 18.9476 0.0946626 18.6332 0.00292969 18.311V5.19002C0.0177692 5.15503 0.0298178 5.11891 0.0389404 5.08202C0.14098 4.50005 0.444804 3.97265 0.897064 3.59244C1.34932 3.21224 1.92109 3.00354 2.51193 3.00302C2.78293 3.00302 3.05295 3.00302 3.33295 3.00302C3.33295 2.44102 3.32795 1.90302 3.33295 1.37402C3.32747 1.25789 3.34638 1.1419 3.38849 1.03353C3.43059 0.925169 3.49495 0.826828 3.57739 0.744858C3.65983 0.662887 3.75855 0.599104 3.86716 0.557621C3.97576 0.516138 4.09185 0.497879 4.20795 0.504017C4.45495 0.504017 4.70295 0.504017 4.94995 0.504017C5.06757 0.496039 5.18554 0.51333 5.29593 0.554733C5.40631 0.596136 5.50654 0.66069 5.5899 0.744053C5.67327 0.827416 5.73783 0.927656 5.77924 1.03804C5.82064 1.14842 5.83793 1.26639 5.82996 1.38401C5.82996 1.85301 5.82996 2.32102 5.82996 2.79002V2.99002H14.1689V2.76401C14.1689 2.28201 14.1629 1.80102 14.1689 1.31902C14.1689 1.21118 14.1903 1.10441 14.2318 1.00489C14.2733 0.90536 14.3341 0.815048 14.4108 0.73917C14.4874 0.663292 14.5783 0.603354 14.6782 0.56282C14.7781 0.522286 14.8851 0.50196 14.993 0.503017C15.247 0.503017 15.5009 0.503017 15.7549 0.503017C15.8775 0.492624 16.0008 0.509155 16.1162 0.551456C16.2317 0.593757 16.3365 0.660804 16.4233 0.74789C16.5101 0.834976 16.5768 0.939994 16.6187 1.05558C16.6606 1.17117 16.6768 1.29453 16.666 1.41701C16.666 1.87301 16.666 2.32802 16.666 2.78402C16.666 2.85302 16.6719 2.92102 16.6749 3.00302C16.9659 3.00302 17.239 3.00302 17.511 3.00302C18.1664 3.00615 18.7943 3.26731 19.2586 3.72997C19.723 4.19263 19.9864 4.81955 19.9919 5.47502C19.9979 9.65968 19.9979 13.8444 19.9919 18.029C19.9855 18.5735 19.8013 19.1011 19.4676 19.5314C19.1338 19.9617 18.6687 20.2712 18.1429 20.413C18.0359 20.443 17.9229 20.47 17.8109 20.498ZM18.3289 8.06501H1.68094C1.68094 8.12201 1.66995 8.98101 1.66995 9.02601C1.66995 12.0067 1.66995 14.9877 1.66995 17.969C1.66299 18.0852 1.68104 18.2015 1.7229 18.3101C1.76476 18.4187 1.82945 18.517 1.9126 18.5985C1.99574 18.6799 2.0954 18.7425 2.20483 18.7821C2.31427 18.8217 2.43093 18.8374 2.54694 18.828C7.5136 18.828 12.4803 18.828 17.4469 18.828C17.6084 18.8272 17.7675 18.7881 17.9109 18.714C18.0532 18.633 18.1685 18.512 18.2427 18.3661C18.3168 18.2202 18.3464 18.0557 18.3279 17.893C18.3239 14.9597 18.3239 12.0244 18.3279 9.08702L18.3289 8.06501Z" fill="white"/>
<path d="M14.8721 10.9361C14.8129 11.1483 14.6913 11.3378 14.5231 11.4801C12.6958 13.3041 10.8702 15.1295 9.04615 16.9561C8.98632 17.0298 8.90626 17.0844 8.81583 17.1131C8.72541 17.1419 8.62855 17.1437 8.53715 17.1181C8.45169 17.092 8.37359 17.0461 8.30915 16.9841C7.39982 16.0808 6.49315 15.1751 5.58915 14.2671C5.51637 14.1991 5.45844 14.1168 5.41898 14.0253C5.37953 13.9338 5.3594 13.8352 5.35987 13.7355C5.36034 13.6359 5.38138 13.5375 5.4217 13.4464C5.46202 13.3553 5.52074 13.2735 5.59415 13.2061C5.69615 13.1028 5.79915 12.9998 5.90315 12.8971C5.97091 12.8242 6.05302 12.766 6.1443 12.7262C6.23557 12.6864 6.33408 12.6658 6.43366 12.6658C6.53324 12.6658 6.63175 12.6864 6.72303 12.7262C6.81431 12.766 6.89638 12.8242 6.96415 12.8971C7.50615 13.4365 8.04683 13.9771 8.58616 14.5191C8.61291 14.5534 8.63664 14.5898 8.65714 14.6281C8.68451 14.5871 8.71424 14.5477 8.74616 14.5101L13.2372 10.0181C13.3059 9.93544 13.3921 9.8689 13.4895 9.82324C13.5869 9.77758 13.6931 9.75391 13.8006 9.75391C13.9082 9.75391 14.0144 9.77758 14.1118 9.82324C14.2092 9.8689 14.2954 9.93544 14.3641 10.0181C14.4141 10.0681 14.4641 10.1181 14.5151 10.1691C14.6904 10.3085 14.8159 10.5007 14.8731 10.7171L14.8721 10.9361Z" fill="white"/>
</svg>
