<svg width="20" height="20" viewBox="0 0 20 20" fill="none" xmlns="http://www.w3.org/2000/svg">
<path fill-rule="evenodd" clip-rule="evenodd" d="M17.7197 2H16.6717V0H14.5757V2H6.19166V0H4.09566V2H3.04766C2.49228 2.00158 1.96011 2.2128 1.5674 2.58753C1.17468 2.96227 0.953319 3.47005 0.95166 4L0.95166 18C0.953319 18.5299 1.17468 19.0377 1.5674 19.4125C1.96011 19.7872 2.49228 19.9984 3.04766 20H17.7197C18.275 19.9984 18.8072 19.7872 19.1999 19.4125C19.5926 19.0377 19.814 18.5299 19.8157 18V4C19.814 3.47005 19.5926 2.96227 19.1999 2.58753C18.8072 2.2128 18.275 2.00158 17.7197 2ZM17.7197 18H3.04766V7H17.7197V18Z" fill="#898A8E"/>
<path d="M10.3836 9H5.14355V14H10.3836V9Z" fill="#898A8E"/>
</svg>
