<svg width="20" height="20" viewBox="0 0 20 20" fill="none" xmlns="http://www.w3.org/2000/svg">
<mask id="mask0_811_37" style="mask-type:luminance" maskUnits="userSpaceOnUse" x="0" y="0" width="20" height="20">
<path d="M20 0H0V20H20V0Z" fill="white"/>
</mask>
<g mask="url(#mask0_811_37)">
<path d="M9.09888 7.58191C9.09888 6.70591 9.09888 5.8299 9.09888 4.9539C9.08715 4.86761 9.09383 4.77981 9.11846 4.69628C9.14309 4.61275 9.18512 4.53538 9.2418 4.46926C9.29847 4.40314 9.36851 4.34977 9.44729 4.31265C9.52607 4.27553 9.61182 4.25551 9.69889 4.25391C10.0679 4.25391 10.3089 4.52991 10.3089 4.96291C10.3089 6.58224 10.3089 8.20191 10.3089 9.82191C10.3044 9.8807 10.3158 9.93962 10.342 9.99243C10.3683 10.0452 10.4083 10.09 10.4579 10.1219C11.5059 10.9089 12.5489 11.7019 13.5949 12.4909C13.6754 12.5406 13.7447 12.6065 13.7983 12.6845C13.8518 12.7626 13.8885 12.8509 13.9059 12.9439C13.9258 13.063 13.9088 13.1852 13.8574 13.2944C13.8059 13.4036 13.7224 13.4945 13.6179 13.5549C13.509 13.621 13.3818 13.6507 13.2549 13.6398C13.128 13.6288 13.0078 13.5777 12.9119 13.4939C12.1519 12.9219 11.3912 12.3509 10.6299 11.7809C10.2219 11.4749 9.81688 11.1639 9.40388 10.8639C9.30572 10.7958 9.22662 10.7037 9.17411 10.5964C9.1216 10.4891 9.09743 10.3702 9.10389 10.2509C9.10389 9.36191 9.10389 8.47391 9.10389 7.58491" fill="#919191"/>
<path d="M10.0069 0.908203C8.21004 0.908203 6.45354 1.44103 4.95952 2.4393C3.4655 3.43757 2.30106 4.85646 1.61343 6.51652C0.925811 8.17659 0.745898 10.0033 1.09644 11.7656C1.44699 13.5279 2.31225 15.1467 3.58281 16.4173C4.85337 17.6878 6.47217 18.5531 8.23448 18.9036C9.9968 19.2542 11.8235 19.0743 13.4836 18.3866C15.1436 17.699 16.5625 16.5346 17.5608 15.0406C18.5591 13.5465 19.0919 11.79 19.0919 9.9932C19.0919 7.58371 18.1347 5.27291 16.4309 3.56914C14.7272 1.86537 12.4164 0.908203 10.0069 0.908203ZM10.0069 17.8472C8.45331 17.8472 6.93462 17.3865 5.64288 16.5234C4.35113 15.6603 3.34433 14.4335 2.74981 12.9982C2.15528 11.5629 1.99972 9.98349 2.30281 8.45977C2.6059 6.93605 3.35401 5.53642 4.45256 4.43788C5.5511 3.33934 6.95072 2.59122 8.47444 2.28813C9.99817 1.98505 11.5775 2.1406 13.0129 2.73513C14.4482 3.32966 15.675 4.33645 16.5381 5.6282C17.4012 6.91995 17.8619 8.43863 17.8619 9.9922C17.8619 11.0237 17.6587 12.0452 17.264 12.9982C16.8692 13.9512 16.2906 14.8171 15.5612 15.5465C14.8318 16.2759 13.9659 16.8545 13.0129 17.2493C12.0598 17.644 11.0384 17.8472 10.0069 17.8472Z" fill="#919191"/>
</g>
</svg>
