<svg width="17" height="20" viewBox="0 0 17 20" fill="none" xmlns="http://www.w3.org/2000/svg">
<path d="M5.68367 18.5H3.06367C2.4663 18.455 1.91152 18.1874 1.51929 17.7551C1.12706 17.3228 0.928907 16.7606 0.967671 16.19V8.1L8.30367 1.5L15.6397 8.1V16.19C15.6784 16.7606 15.4803 17.3228 15.088 17.7551C14.6958 18.1874 14.141 18.455 13.5437 18.5H10.9237V12.5C10.9237 12.3674 10.8685 12.2402 10.7702 12.1464C10.6719 12.0527 10.5386 12 10.3997 12H6.20767C6.0687 12 5.93542 12.0527 5.83715 12.1464C5.73888 12.2402 5.68367 12.3674 5.68367 12.5V18.5Z" stroke="#278252" stroke-width="1.5" stroke-linecap="round" stroke-linejoin="round"/>
</svg>
