<svg width="36" height="25" viewBox="0 0 36 25" fill="none" xmlns="http://www.w3.org/2000/svg">
<path d="M18.9347 0.796878C19.328 0.796249 19.7141 0.897607 20.0517 1.09012C20.3893 1.28264 20.6658 1.55907 20.8515 1.88988L21.6218 3.24188L24.2104 1.18288C24.5248 0.93348 24.9207 0.796921 25.3296 0.796878H26.4436C26.6732 0.796746 26.9006 0.839801 27.1128 0.923579C27.3249 1.00736 27.5177 1.13022 27.68 1.28513C27.8424 1.44005 27.9711 1.62398 28.0589 1.82641C28.1467 2.02884 28.1918 2.2458 28.1917 2.46488V4.13288C28.1914 4.35166 28.146 4.56825 28.058 4.77028C27.97 4.97231 27.8412 5.15582 27.6788 5.31033C27.5165 5.46485 27.3239 5.58734 27.112 5.67082C26.9 5.75431 26.6729 5.79714 26.4436 5.79688H23.0691L26.0779 11.0659C26.7687 10.8963 27.4784 10.807 28.1917 10.7999C29.5744 10.7999 30.9261 11.1911 32.0758 11.9241C33.2255 12.6572 34.1216 13.699 34.6507 14.918C35.1799 16.137 35.3183 17.4783 35.0486 18.7723C34.7788 20.0664 34.113 21.255 33.1352 22.188C32.1575 23.1209 30.9118 23.7563 29.5556 24.0137C28.1995 24.2711 26.7938 24.139 25.5163 23.6341C24.2388 23.1292 23.1469 22.2741 22.3787 21.1771C21.6105 20.08 21.2005 18.7903 21.2005 17.4709C21.1952 16.4801 21.4237 15.5009 21.8691 14.6059C22.3145 13.7109 22.9653 12.9231 23.7733 12.3009L22.9349 10.8109C21.8457 11.5805 20.9626 12.5851 20.3579 13.7426C19.7532 14.9001 19.444 16.1776 19.4556 17.4709C19.4575 18.031 19.5161 18.5895 19.6306 19.1389H15.7834C15.8819 18.5881 15.924 18.0295 15.9091 17.4709C15.9136 16.3747 15.6906 15.2886 15.253 14.2751C14.8155 13.2615 14.172 12.3407 13.3597 11.5656C12.5474 10.7905 11.5823 10.1765 10.5201 9.75895C9.45796 9.34143 8.31968 9.12864 7.17092 9.13288H1.93092V7.46788C1.93868 7.02822 2.12468 6.60853 2.44985 6.29695C2.77502 5.98536 3.21407 5.80613 3.67479 5.79688H9.26797C9.72652 5.79633 10.1807 5.88218 10.6044 6.04949C11.0281 6.2168 11.413 6.46229 11.7371 6.77188L14.1621 9.13288L19.5688 4.87488L18.6738 3.29688H15.4721C15.1338 3.28396 14.8138 3.14662 14.5791 2.91361C14.3445 2.6806 14.2135 2.37001 14.2135 2.04688C14.2135 1.72375 14.3445 1.41316 14.5791 1.18015C14.8138 0.94714 15.1338 0.809795 15.4721 0.796878H18.9347ZM24.6987 17.4729C24.6987 18.1325 24.9037 18.7773 25.2877 19.3257C25.6718 19.8741 26.2176 20.3016 26.8563 20.554C27.4949 20.8064 28.1977 20.8725 28.8757 20.7438C29.5536 20.6151 30.1764 20.2975 30.6652 19.8311C31.154 19.3647 31.4869 18.7704 31.6217 18.1235C31.7566 17.4766 31.6874 16.806 31.4228 16.1966C31.1583 15.5872 30.7103 15.0664 30.1356 14.6999C29.5608 14.3335 28.8851 14.1379 28.1938 14.1379C28.0642 14.1369 27.9347 14.1439 27.806 14.1589L29.3466 16.8789C29.4283 17.0233 29.4795 17.1817 29.4971 17.345C29.5147 17.5084 29.4984 17.6734 29.4491 17.8307C29.3999 17.988 29.3187 18.1345 29.2101 18.2618C29.1015 18.3892 28.9677 18.4949 28.8163 18.5729C28.6649 18.6509 28.4989 18.6997 28.3278 18.7165C28.1566 18.7332 27.9837 18.7177 27.8188 18.6707C27.654 18.6237 27.5004 18.5462 27.367 18.4426C27.2335 18.339 27.1227 18.2113 27.041 18.0669L25.5004 15.3469C24.9804 15.9441 24.6963 16.6964 24.6977 17.4729H24.6987ZM14.093 18.7239C13.7669 20.355 12.8149 21.8115 11.4233 22.8086C10.0316 23.8056 8.30022 24.2715 6.56766 24.1153C4.8351 23.959 3.22591 23.1918 2.05467 21.9635C0.883438 20.7353 0.234375 19.1345 0.234375 17.4739C0.234375 15.8133 0.883438 14.2124 2.05467 12.9842C3.22591 11.756 4.8351 10.9888 6.56766 10.8325C8.30022 10.6762 10.0316 11.1421 11.4233 12.1392C12.8149 13.1362 13.7669 14.5927 14.093 16.2239H10.4585C10.1545 15.5063 9.59833 14.912 8.8854 14.5428C8.17248 14.1735 7.34717 14.0524 6.55093 14.2002C5.7547 14.348 5.03712 14.7554 4.52119 15.3527C4.00527 15.95 3.72313 16.6999 3.72313 17.4739C3.72313 18.2479 4.00527 18.9978 4.52119 19.5951C5.03712 20.1923 5.7547 20.5998 6.55093 20.7475C7.34717 20.8953 8.17248 20.7742 8.8854 20.405C9.59833 20.0358 10.1545 19.4415 10.4585 18.7239H14.093ZM5.46897 17.4729C5.46897 17.143 5.57149 16.8205 5.76357 16.5462C5.95565 16.2719 6.22866 16.0581 6.54808 15.9318C6.86749 15.8056 7.21897 15.7726 7.55806 15.8369C7.89715 15.9013 8.20863 16.0602 8.4531 16.2934C8.69757 16.5267 8.86406 16.8239 8.93151 17.1475C8.99896 17.471 8.96434 17.8064 8.83203 18.1112C8.69973 18.416 8.47567 18.6765 8.18821 18.8598C7.90074 19.0431 7.56277 19.1409 7.21703 19.1409C6.9874 19.1411 6.75996 19.0982 6.54775 19.0144C6.33554 18.9307 6.14273 18.8079 5.98035 18.6529C5.81797 18.498 5.68922 18.314 5.60147 18.1115C5.51372 17.909 5.46869 17.692 5.46897 17.4729Z" fill="white"/>
</svg>
