<svg width="18" height="20" viewBox="0 0 18 20" fill="none" xmlns="http://www.w3.org/2000/svg">
<path d="M16.919 17.2961H1.58257C1.46365 17.2958 1.34677 17.2666 1.24307 17.211C1.13936 17.1555 1.05227 17.0756 0.990083 16.9788C0.927897 16.8821 0.892685 16.7718 0.887796 16.6584C0.882908 16.5451 0.908506 16.4324 0.962155 16.3311C1.82222 14.6766 2.2729 12.8559 2.27949 11.0091V8.64909C2.27949 7.77541 2.45984 6.91028 2.81023 6.1031C3.16062 5.29592 3.6742 4.5625 4.32164 3.94471C4.96909 3.32692 5.73771 2.83687 6.58363 2.50252C7.42956 2.16818 8.33621 1.99609 9.25184 1.99609C10.1675 1.99609 11.0741 2.16818 11.92 2.50252C12.766 2.83687 13.5346 3.32692 14.182 3.94471C14.8295 4.5625 15.343 5.29592 15.6934 6.1031C16.0438 6.91028 16.2242 7.77541 16.2242 8.64909V10.9961C16.2324 12.8441 16.6853 14.6655 17.5478 16.3201C17.6047 16.4218 17.6329 16.5359 17.6296 16.6511C17.6263 16.7664 17.5917 16.8788 17.5291 16.9775C17.4666 17.0761 17.3782 17.1575 17.2727 17.2137C17.1672 17.2699 17.0482 17.299 16.9274 17.2981L16.919 17.2961ZM2.6662 15.9671H15.8417C15.1765 14.3865 14.8333 12.6994 14.8303 10.9961V8.64909C14.8303 7.23748 14.2427 5.88368 13.1966 4.88552C12.1505 3.88736 10.7317 3.32659 9.25236 3.32659C7.77299 3.32659 6.35421 3.88736 5.30813 4.88552C4.26206 5.88368 3.67438 7.23748 3.67438 8.64909V10.9961C3.6713 12.699 3.32807 14.3858 2.66306 15.9661L2.6662 15.9671Z" fill="#898A8D"/>
<path d="M9.2533 19.9593C8.79542 19.9593 8.34202 19.8732 7.919 19.706C7.49597 19.5388 7.1116 19.2938 6.78783 18.9848C6.46406 18.6759 6.20723 18.3091 6.03201 17.9055C5.85679 17.5018 5.7666 17.0692 5.7666 16.6323C5.7666 16.4558 5.84008 16.2865 5.97088 16.1617C6.10167 16.0369 6.27907 15.9668 6.46405 15.9668C6.64902 15.9668 6.82642 16.0369 6.95721 16.1617C7.08801 16.2865 7.16149 16.4558 7.16149 16.6323C7.16244 17.1612 7.38288 17.6681 7.77457 18.0423C8.17357 18.4036 8.70269 18.6051 9.25277 18.6051C9.80286 18.6051 10.332 18.4036 10.731 18.0423C10.796 17.9802 10.8732 17.931 10.9582 17.8974C11.0431 17.8639 11.1342 17.8466 11.2262 17.8466C11.3181 17.8466 11.4092 17.8639 11.4941 17.8974C11.5791 17.931 11.6563 17.9802 11.7213 18.0423C11.7864 18.1043 11.8379 18.178 11.8731 18.2591C11.9083 18.3402 11.9264 18.427 11.9264 18.5148C11.9264 18.6025 11.9083 18.6894 11.8731 18.7705C11.8379 18.8516 11.7864 18.9252 11.7213 18.9873C11.397 19.2961 11.0122 19.5409 10.5887 19.7076C10.1652 19.8744 9.71143 19.9599 9.2533 19.9593Z" fill="#898A8D"/>
<path d="M9.25161 3.32759C9.16 3.32759 9.06929 3.31036 8.98467 3.27688C8.90004 3.2434 8.82317 3.19432 8.75844 3.13247C8.69371 3.07061 8.6424 2.99718 8.60744 2.91639C8.57248 2.83559 8.55455 2.74901 8.55469 2.66159V0.661594C8.55469 0.485092 8.62817 0.31582 8.75897 0.191014C8.88976 0.0662087 9.06716 -0.00390625 9.25213 -0.00390625C9.43711 -0.00390625 9.6145 0.0662087 9.7453 0.191014C9.8761 0.31582 9.94958 0.485092 9.94958 0.661594V2.66159C9.94971 2.74909 9.93176 2.83575 9.89673 2.91662C9.8617 2.99748 9.81029 3.07095 9.74545 3.13282C9.68061 3.19469 9.60362 3.24374 9.51887 3.27717C9.43413 3.31059 9.34331 3.32773 9.25161 3.32759Z" fill="#898A8D"/>
</svg>
